<mxfile host="Electron" modified="2024-04-03T17:32:50.025Z" agent="Mozilla/5.0 (Windows NT 10.0; Win64; x64) AppleWebKit/537.36 (KHTML, like Gecko) draw.io/24.1.0 Chrome/120.0.6099.109 Electron/28.1.0 Safari/537.36" etag="EkuBqzkm3BRxkKM8-yib" version="24.1.0" type="device">
  <diagram name="Диаграмма компонентов" id="L3Rs6rBBMXFZQ932EocB">
    <mxGraphModel dx="1313" dy="896" grid="1" gridSize="10" guides="1" tooltips="1" connect="1" arrows="1" fold="1" page="1" pageScale="1" pageWidth="1169" pageHeight="827" math="0" shadow="0">
      <root>
        <mxCell id="0" />
        <mxCell id="1" parent="0" />
        <mxCell id="1ALmGn_aruE37vwD-dvV-39" style="edgeStyle=orthogonalEdgeStyle;rounded=0;orthogonalLoop=1;jettySize=auto;html=1;exitX=0.25;exitY=1;exitDx=0;exitDy=0;entryX=0.5;entryY=0;entryDx=0;entryDy=0;curved=1;fillColor=#f5f5f5;strokeColor=#666666;strokeWidth=2;fontColor=#000000;" edge="1" parent="1" source="1ALmGn_aruE37vwD-dvV-18" target="1ALmGn_aruE37vwD-dvV-24">
          <mxGeometry relative="1" as="geometry" />
        </mxCell>
        <mxCell id="1ALmGn_aruE37vwD-dvV-18" value="&lt;span style=&quot;font-size: 16px; font-weight: 700;&quot;&gt;Подсистема&lt;/span&gt;&lt;br style=&quot;font-size: 16px; font-weight: 700;&quot;&gt;&lt;span style=&quot;font-size: 16px; font-weight: 700;&quot;&gt;управления клиентами&lt;/span&gt;" style="shape=module;align=left;spacingLeft=20;align=center;verticalAlign=middle;whiteSpace=wrap;html=1;fillColor=#f5f5f5;fontColor=#000000;strokeColor=#666666;strokeWidth=2;" vertex="1" parent="1">
          <mxGeometry x="70" y="110" width="250" height="60" as="geometry" />
        </mxCell>
        <mxCell id="1ALmGn_aruE37vwD-dvV-19" value="&lt;span style=&quot;font-size: 16px; font-weight: 700;&quot;&gt;Подсистема&lt;/span&gt;&lt;br style=&quot;font-size: 16px; font-weight: 700;&quot;&gt;&lt;span style=&quot;font-size: 16px; font-weight: 700;&quot;&gt;учёта оборудования&lt;/span&gt;" style="shape=module;align=left;spacingLeft=20;align=center;verticalAlign=middle;whiteSpace=wrap;html=1;fillColor=#f5f5f5;fontColor=#000000;strokeColor=#666666;strokeWidth=2;" vertex="1" parent="1">
          <mxGeometry x="430" y="110" width="250" height="60" as="geometry" />
        </mxCell>
        <mxCell id="1ALmGn_aruE37vwD-dvV-20" value="&lt;span style=&quot;font-size: 16px; font-weight: 700;&quot;&gt;Подсистема&lt;/span&gt;&lt;br style=&quot;font-size: 16px; font-weight: 700;&quot;&gt;&lt;span style=&quot;font-size: 16px; font-weight: 700;&quot;&gt;управления персоналом&lt;/span&gt;" style="shape=module;align=left;spacingLeft=20;align=center;verticalAlign=middle;whiteSpace=wrap;html=1;fillColor=#f5f5f5;fontColor=#000000;strokeColor=#666666;strokeWidth=2;" vertex="1" parent="1">
          <mxGeometry x="790" y="110" width="250" height="60" as="geometry" />
        </mxCell>
        <mxCell id="1ALmGn_aruE37vwD-dvV-21" value="&lt;span style=&quot;font-size: 16px; font-weight: 700;&quot;&gt;Подсистема&lt;/span&gt;&lt;br style=&quot;font-size: 16px; font-weight: 700;&quot;&gt;&lt;span style=&quot;font-size: 16px; font-weight: 700;&quot;&gt;управления объявлениями&lt;/span&gt;" style="shape=module;align=left;spacingLeft=20;align=center;verticalAlign=middle;whiteSpace=wrap;html=1;fillColor=#f5f5f5;fontColor=#000000;strokeColor=#666666;strokeWidth=2;" vertex="1" parent="1">
          <mxGeometry x="790" y="270" width="250" height="60" as="geometry" />
        </mxCell>
        <mxCell id="1ALmGn_aruE37vwD-dvV-32" style="edgeStyle=orthogonalEdgeStyle;rounded=0;orthogonalLoop=1;jettySize=auto;html=1;exitX=0.75;exitY=0;exitDx=0;exitDy=0;entryX=0.5;entryY=1;entryDx=0;entryDy=0;curved=1;fillColor=#f5f5f5;strokeColor=#666666;strokeWidth=2;fontColor=#000000;" edge="1" parent="1" source="1ALmGn_aruE37vwD-dvV-22" target="1ALmGn_aruE37vwD-dvV-19">
          <mxGeometry relative="1" as="geometry" />
        </mxCell>
        <mxCell id="1ALmGn_aruE37vwD-dvV-36" style="edgeStyle=orthogonalEdgeStyle;rounded=0;orthogonalLoop=1;jettySize=auto;html=1;exitX=0.25;exitY=0;exitDx=0;exitDy=0;entryX=0.5;entryY=1;entryDx=0;entryDy=0;curved=1;fillColor=#f5f5f5;strokeColor=#666666;strokeWidth=2;fontColor=#000000;" edge="1" parent="1" source="1ALmGn_aruE37vwD-dvV-22" target="1ALmGn_aruE37vwD-dvV-18">
          <mxGeometry relative="1" as="geometry" />
        </mxCell>
        <mxCell id="1ALmGn_aruE37vwD-dvV-22" value="&lt;span style=&quot;font-size: 16px; font-weight: 700;&quot;&gt;Подсистема&lt;/span&gt;&lt;br style=&quot;font-size: 16px; font-weight: 700;&quot;&gt;&lt;span style=&quot;font-size: 16px; font-weight: 700;&quot;&gt;управления финансами&lt;/span&gt;" style="shape=module;align=left;spacingLeft=20;align=center;verticalAlign=middle;whiteSpace=wrap;html=1;fillColor=#f5f5f5;fontColor=#000000;strokeColor=#666666;strokeWidth=2;" vertex="1" parent="1">
          <mxGeometry x="250" y="270" width="250" height="60" as="geometry" />
        </mxCell>
        <mxCell id="1ALmGn_aruE37vwD-dvV-27" style="edgeStyle=orthogonalEdgeStyle;rounded=0;orthogonalLoop=1;jettySize=auto;html=1;exitX=1;exitY=0.5;exitDx=0;exitDy=0;entryX=0.5;entryY=1;entryDx=0;entryDy=0;curved=1;fillColor=#f5f5f5;strokeColor=#666666;strokeWidth=2;fontColor=#000000;" edge="1" parent="1" source="1ALmGn_aruE37vwD-dvV-23" target="1ALmGn_aruE37vwD-dvV-21">
          <mxGeometry relative="1" as="geometry" />
        </mxCell>
        <mxCell id="1ALmGn_aruE37vwD-dvV-23" value="&lt;span style=&quot;font-size: 16px; font-weight: 700;&quot;&gt;Подсистема информирования и уведомлений&lt;/span&gt;" style="shape=module;align=left;spacingLeft=20;align=center;verticalAlign=middle;whiteSpace=wrap;html=1;fillColor=#f5f5f5;fontColor=#000000;strokeColor=#666666;strokeWidth=2;" vertex="1" parent="1">
          <mxGeometry x="530" y="430" width="250" height="60" as="geometry" />
        </mxCell>
        <mxCell id="1ALmGn_aruE37vwD-dvV-24" value="&lt;span style=&quot;font-size: 16px; font-weight: 700;&quot;&gt;Подсистема&lt;/span&gt;&lt;br style=&quot;font-size: 16px; font-weight: 700;&quot;&gt;&lt;span style=&quot;font-size: 16px; font-weight: 700;&quot;&gt;управления списком дел&lt;/span&gt;" style="shape=module;align=left;spacingLeft=20;align=center;verticalAlign=middle;whiteSpace=wrap;html=1;fillColor=#f5f5f5;fontColor=#000000;strokeColor=#666666;strokeWidth=2;" vertex="1" parent="1">
          <mxGeometry x="70" y="430" width="250" height="60" as="geometry" />
        </mxCell>
        <mxCell id="1ALmGn_aruE37vwD-dvV-33" style="edgeStyle=orthogonalEdgeStyle;rounded=0;orthogonalLoop=1;jettySize=auto;html=1;exitX=0.5;exitY=0;exitDx=0;exitDy=0;entryX=0.5;entryY=1;entryDx=0;entryDy=0;curved=1;fillColor=#f5f5f5;strokeColor=#666666;strokeWidth=2;fontColor=#000000;" edge="1" parent="1" source="1ALmGn_aruE37vwD-dvV-28" target="1ALmGn_aruE37vwD-dvV-24">
          <mxGeometry relative="1" as="geometry" />
        </mxCell>
        <mxCell id="1ALmGn_aruE37vwD-dvV-28" value="&lt;span style=&quot;font-size: 16px; font-weight: 700;&quot;&gt;Подсистема отчётов&lt;/span&gt;" style="shape=module;align=left;spacingLeft=20;align=center;verticalAlign=middle;whiteSpace=wrap;html=1;fillColor=#f5f5f5;fontColor=#000000;strokeColor=#666666;strokeWidth=2;" vertex="1" parent="1">
          <mxGeometry x="250" y="590" width="250" height="60" as="geometry" />
        </mxCell>
        <mxCell id="1ALmGn_aruE37vwD-dvV-40" value="Sports Complex" style="shape=umlFrame;whiteSpace=wrap;html=1;pointerEvents=0;width=240;height=30;fontStyle=1;fontSize=16;fillColor=#f5f5f5;fontColor=#000000;strokeColor=#666666;strokeWidth=2;" vertex="1" parent="1">
          <mxGeometry x="40" y="40" width="1030" height="630" as="geometry" />
        </mxCell>
        <mxCell id="1ALmGn_aruE37vwD-dvV-42" value="использует" style="text;html=1;align=center;verticalAlign=middle;whiteSpace=wrap;rounded=0;" vertex="1" parent="1">
          <mxGeometry x="220" y="180" width="80" height="30" as="geometry" />
        </mxCell>
        <mxCell id="1ALmGn_aruE37vwD-dvV-43" value="использует" style="text;html=1;align=center;verticalAlign=middle;whiteSpace=wrap;rounded=0;" vertex="1" parent="1">
          <mxGeometry x="430" y="190" width="80" height="30" as="geometry" />
        </mxCell>
        <mxCell id="1ALmGn_aruE37vwD-dvV-44" value="использует" style="text;html=1;align=center;verticalAlign=middle;whiteSpace=wrap;rounded=0;" vertex="1" parent="1">
          <mxGeometry x="810" y="384" width="80" height="30" as="geometry" />
        </mxCell>
        <mxCell id="1ALmGn_aruE37vwD-dvV-45" value="использует" style="text;html=1;align=center;verticalAlign=middle;whiteSpace=wrap;rounded=0;" vertex="1" parent="1">
          <mxGeometry x="280" y="510" width="80" height="30" as="geometry" />
        </mxCell>
        <mxCell id="1ALmGn_aruE37vwD-dvV-46" value="использует" style="text;html=1;align=center;verticalAlign=middle;whiteSpace=wrap;rounded=0;" vertex="1" parent="1">
          <mxGeometry x="100" y="310" width="80" height="30" as="geometry" />
        </mxCell>
      </root>
    </mxGraphModel>
  </diagram>
</mxfile>
